<svg xmlns="http://www.w3.org/2000/svg" viewBox="0 0 38.02 36.24"><defs><style>.cls-1{fill:#f2b42c;}.cls-2{fill:#33b0bc;}.cls-3{fill:#db3549;}.cls-4{fill:#a52438;}.cls-5{fill:#fff;}.cls-6{fill:#74cdd9;}</style></defs><g id="Layer_2" data-name="Layer 2"><g id="Layer_1-2" data-name="Layer 1"><path class="cls-1" d="M9.78,32.56a6.85,6.85,0,0,1-4,1.49A9.24,9.24,0,0,0,8,31.77a11,11,0,0,1-3.63,1.78,7.39,7.39,0,0,1-3.86.32,7.35,7.35,0,0,1,.75-3.77,6.93,6.93,0,0,1,2.4-3.24A7,7,0,0,0,1,28.62a7.31,7.31,0,0,1,2-3.93c3-2.68,4.25-.83,6.34,1.52S12.93,29.86,9.78,32.56Z"/><path class="cls-2" d="M15,14.76s-8.3-3.12-15,2.81c0,0-.41,1,1,.83s4.28-1.84,7.6,1.9Z"/><path class="cls-2" d="M21.18,21.67s2.15,8.6-4.52,14.54c0,0-1.06.29-.7-1.08s2.31-4-1-7.77Z"/><path class="cls-3" d="M35.09,12.68,30.32,7.33,25.54,2A34.39,34.39,0,0,0,17,7.54c-5.65,5-7.75,9.05-9,13.38l3.12,3.51,3.13,3.5c4.44-.72,8.67-2.34,14.32-7.37A34.77,34.77,0,0,0,35.09,12.68ZM20.86,15.75a4.81,4.81,0,1,1,6.78.4A4.8,4.8,0,0,1,20.86,15.75Z"/><path class="cls-4" d="M14.19,27.89l-3.07-3.45L8,21a.22.22,0,0,0-.31,0L7,21.64a.22.22,0,0,0,0,.31L10,25.41l3.08,3.45a.22.22,0,0,0,.31,0l.76-.68A.21.21,0,0,0,14.19,27.89Z"/><path class="cls-5" d="M28,9.36a4.81,4.81,0,1,0-.4,6.79A4.8,4.8,0,0,0,28,9.36ZM22,14.75a3.29,3.29,0,1,1,4.65.27A3.29,3.29,0,0,1,22,14.75Z"/><path class="cls-6" d="M26.91,10.37A3.29,3.29,0,1,0,26.64,15,3.28,3.28,0,0,0,26.91,10.37Z"/><path class="cls-2" d="M37.3,1.11C36.25-.06,31.92-1,25.54,2l4.78,5.36,4.77,5.35C38.74,6.69,38.34,2.28,37.3,1.11Z"/><path class="cls-2" d="M16.47,20.06s0,0,0-.06h0l-.15-.16-.16-.18h0l-.06-.05a.35.35,0,0,0-.14-.06,1,1,0,0,0-1.26.13L8.5,26.08l-.33.3-.25.23a.23.23,0,0,0-.07.26.34.34,0,0,0,.06.12h0l.15.17.17.18h0a.25.25,0,0,0,.35,0l.25-.23.37-.31,7.07-5.37A1,1,0,0,0,16.47,20.06Z"/></g></g></svg>